<svg width="36" height="35" viewBox="0 0 36 35" fill="none" xmlns="http://www.w3.org/2000/svg">
<path d="M18 0C8.055 0 0 8.03457 0 17.9443C0 25.8742 5.157 32.5989 12.3075 34.969C13.2075 35.138 13.5375 34.5832 13.5375 34.1062C13.5375 33.68 13.5225 32.551 13.515 31.0556C8.508 32.1383 7.452 28.6481 7.452 28.6481C6.633 26.577 5.4495 26.0238 5.4495 26.0238C3.819 24.9112 5.5755 24.9336 5.5755 24.9336C7.383 25.0592 8.3325 26.7819 8.3325 26.7819C9.9375 29.5259 12.546 28.7333 13.575 28.2743C13.737 27.1139 14.2005 26.3228 14.715 25.8742C10.7175 25.4256 6.516 23.8824 6.516 17.0067C6.516 15.0478 7.2135 13.4478 8.3685 12.1917C8.166 11.7386 7.5585 9.91424 8.526 7.44241C8.526 7.44241 10.0335 6.9609 13.476 9.2817C14.916 8.88244 16.446 8.68505 17.976 8.67608C19.506 8.68505 21.036 8.88244 22.476 9.2817C25.896 6.9609 27.4035 7.44241 27.4035 7.44241C28.371 9.91424 27.7635 11.7386 27.5835 12.1917C28.731 13.4478 29.4285 15.0478 29.4285 17.0067C29.4285 23.9003 25.221 25.4181 21.216 25.8593C21.846 26.3976 22.431 27.4982 22.431 29.179C22.431 31.5805 22.4085 33.5095 22.4085 34.0927C22.4085 34.5638 22.7235 35.1245 23.646 34.9451C30.8475 32.5914 36 25.8623 36 17.9443C36 8.03457 27.9405 0 18 0Z" fill="#181717"/>
</svg>
