<svg width="87" height="87" viewBox="0 0 87 87" fill="none" xmlns="http://www.w3.org/2000/svg">
<path d="M0 0H87V87H0V0ZM79.8733 66.2505C79.2389 62.2811 76.6543 58.9461 68.9874 55.8359C66.3194 54.5853 63.3541 53.7152 62.4732 51.7034C62.1434 50.5071 62.0926 49.8546 62.3065 49.1477C62.8503 46.806 65.6234 46.1027 67.7984 46.7552C69.2121 47.1903 70.5171 48.2778 71.3364 50.0177C75.0846 47.5673 75.0846 47.5673 77.6982 45.9396C76.7195 44.4171 76.2337 43.761 75.574 43.1121C73.2902 40.5565 70.2489 39.2515 65.3008 39.3639L62.7451 39.6865C60.2946 40.2846 57.9601 41.5896 56.5464 43.3296C52.4139 48.0095 53.6065 56.1657 58.609 59.537C63.5571 63.2345 70.7926 64.0465 71.717 67.5301C72.587 71.7714 68.5633 73.1307 64.5903 72.6414C61.6504 71.9889 60.0228 70.5171 58.2284 67.7984L51.5946 71.6082C52.3559 73.3483 53.2259 74.1059 54.5309 75.6284C60.8384 81.9939 76.6071 81.6676 79.4382 71.9889C79.5434 71.6626 80.3083 69.4333 79.7065 66.0076L79.8733 66.2505ZM47.3099 39.9874H39.1609C39.1609 47.0126 39.1283 53.9944 39.1283 61.0305C39.1283 65.4965 39.3566 69.5964 38.628 70.8579C37.4318 73.3555 34.3505 73.0365 32.9513 72.5979C31.5158 71.8874 30.7871 70.9086 29.9425 69.4985C29.7141 69.1179 29.5438 68.788 29.4821 68.788L22.8665 72.8661C23.9721 75.1499 25.5852 77.1146 27.666 78.3652C30.7654 80.214 34.9305 80.8121 39.2914 79.8334C42.1297 79.0141 44.5766 77.3285 45.8562 74.7185C47.705 71.3473 47.3135 67.2148 47.2954 62.5893C47.3389 55.1435 47.2954 47.6941 47.2954 40.1904L47.3099 39.9874Z" fill="#F7DF1E"/>
</svg>
